<?xml version="1.0" encoding="utf-8"?>
<!-- Generator: Adobe Illustrator 27.5.0, SVG Export Plug-In . SVG Version: 6.00 Build 0)  -->
<svg version="1.1" xmlns="http://www.w3.org/2000/svg" xmlns:xlink="http://www.w3.org/1999/xlink" x="0px" y="0px"
	 viewBox="0 0 500 500" style="enable-background:new 0 0 500 500;" xml:space="preserve">
<g id="Background_Complete">
	<g>
		<g>
			<path style="fill:#E0E0E0;" d="M70.785,70.809c-0.042,0-0.082-0.6-0.119-1.684c-0.025-1.2-0.058-2.742-0.097-4.592
				c-0.055-3.878-0.089-9.235-0.089-15.151c0-0.262,0-0.523,0-0.765l0-0.305l0.305,0c5.746,0.003,10.912,0.038,14.642,0.093
				c1.776,0.039,3.256,0.071,4.41,0.096c1.039,0.036,1.613,0.075,1.613,0.116c0,0.041-0.573,0.08-1.613,0.116
				c-1.154,0.025-2.633,0.057-4.41,0.096c-3.73,0.055-8.896,0.09-14.642,0.093l0.305-0.305c0,0.242,0,0.503,0,0.765
				c0,5.917-0.034,11.273-0.089,15.151c-0.039,1.85-0.072,3.393-0.097,4.592C70.867,70.21,70.827,70.809,70.785,70.809z"/>
		</g>
		<g>
			<path style="fill:#E0E0E0;" d="M112.638,95.839c-0.084,0-0.16-1.086-0.216-2.841c-0.055-1.755-0.089-4.18-0.089-6.859
				c0-0.119,0-0.237,0-0.346l0-0.305l0.305,0c2.601,0.003,4.94,0.038,6.628,0.093c1.688,0.055,2.727,0.13,2.727,0.212
				c0,0.082-1.038,0.157-2.727,0.212c-1.688,0.055-4.027,0.09-6.628,0.093l0.304-0.304c0,0.11,0,0.228,0,0.346
				c0,2.678-0.034,5.103-0.089,6.859C112.799,94.753,112.722,95.839,112.638,95.839z"/>
		</g>
		<g>
			<path style="fill:#E0E0E0;" d="M122.339,114.324c0,0.084-1.086,0.16-2.841,0.216c-1.756,0.055-4.18,0.089-6.859,0.089
				c-0.119,0-0.237,0-0.346,0l-0.305,0l0-0.305c0.003-2.601,0.038-4.94,0.093-6.628c0.055-1.688,0.13-2.726,0.212-2.726
				c0.082,0,0.157,1.038,0.212,2.726c0.055,1.688,0.09,4.027,0.093,6.628l-0.305-0.305c0.11,0,0.228,0,0.346,0
				c2.678,0,5.103,0.034,6.859,0.089C121.253,114.164,122.339,114.24,122.339,114.324z"/>
		</g>
		<g>
			<path style="fill:#E0E0E0;" d="M150.673,104.624c0.084,0,0.161,1.086,0.216,2.841c0.055,1.755,0.089,4.18,0.089,6.859
				c0,0.119,0,0.237,0,0.346l0,0.305l-0.305,0c-2.601-0.003-4.94-0.038-6.628-0.093c-1.688-0.055-2.726-0.13-2.726-0.212
				c0-0.082,1.038-0.157,2.726-0.212c1.688-0.055,4.027-0.09,6.628-0.093l-0.305,0.304c0-0.109,0-0.228,0-0.346
				c0-2.678,0.034-5.103,0.089-6.859C150.512,105.71,150.589,104.624,150.673,104.624z"/>
		</g>
		<g>
			<path style="fill:#E0E0E0;" d="M140.972,85.793c0-0.084,1.086-0.16,2.841-0.216c1.755-0.055,4.18-0.089,6.859-0.089
				c0.119,0,0.237,0,0.346,0l0.305,0l0,0.305c-0.003,2.601-0.038,4.94-0.093,6.628c-0.055,1.688-0.13,2.727-0.212,2.727
				c-0.082,0-0.157-1.038-0.212-2.727c-0.055-1.688-0.09-4.027-0.093-6.628l0.305,0.304c-0.11,0-0.228,0-0.346,0
				c-2.678,0-5.103-0.034-6.859-0.089C142.058,85.953,140.972,85.877,140.972,85.793z"/>
		</g>
		<g>
			<path style="fill:#E0E0E0;" d="M92.213,151.291c0,0.042-0.6,0.082-1.684,0.119c-1.2,0.025-2.742,0.058-4.592,0.097
				c-3.878,0.055-9.235,0.089-15.151,0.089c-0.262,0-0.523,0-0.765,0h-0.305l0-0.305c0.003-5.746,0.038-10.912,0.093-14.641
				c0.038-1.777,0.071-3.256,0.096-4.41c0.036-1.04,0.075-1.613,0.116-1.613c0.041,0,0.08,0.573,0.116,1.613
				c0.025,1.154,0.057,2.633,0.096,4.41c0.055,3.729,0.09,8.896,0.093,14.641l-0.305-0.305c0.242,0,0.503,0,0.765,0
				c5.916,0,11.273,0.034,15.151,0.089c1.85,0.039,3.393,0.071,4.592,0.097C91.614,151.209,92.213,151.249,92.213,151.291z"/>
		</g>
		<g>
			<path style="fill:#E0E0E0;" d="M191.505,129.098c0.042,0,0.082,0.6,0.119,1.684c0.025,1.2,0.058,2.742,0.097,4.592
				c0.055,3.878,0.089,9.235,0.089,15.151c0,0.262,0,0.523,0,0.765v0.305l-0.305,0c-5.746-0.003-10.912-0.038-14.642-0.093
				c-1.776-0.038-3.256-0.071-4.41-0.096c-1.039-0.036-1.613-0.075-1.613-0.116c0-0.041,0.573-0.081,1.613-0.116
				c1.154-0.025,2.633-0.057,4.41-0.096c3.73-0.055,8.896-0.09,14.642-0.093l-0.305,0.305c0-0.242,0-0.503,0-0.765
				c0-5.917,0.034-11.273,0.089-15.151c0.039-1.85,0.072-3.393,0.097-4.592C191.423,129.698,191.463,129.098,191.505,129.098z"/>
		</g>
		<g>
			<path style="fill:#E0E0E0;" d="M170.076,48.616c0-0.042,0.6-0.082,1.684-0.119c1.2-0.025,2.742-0.058,4.592-0.097
				c3.878-0.055,9.235-0.089,15.151-0.089c0.262,0,0.523,0,0.765,0h0.305l0,0.305c-0.003,5.746-0.038,10.912-0.093,14.642
				c-0.039,1.777-0.071,3.256-0.096,4.41c-0.036,1.039-0.075,1.613-0.116,1.613c-0.041,0-0.08-0.573-0.116-1.613
				c-0.025-1.154-0.057-2.633-0.096-4.41c-0.055-3.73-0.09-8.896-0.093-14.642l0.305,0.305c-0.242,0-0.503,0-0.765,0
				c-5.917,0-11.273-0.034-15.151-0.089c-1.85-0.039-3.393-0.072-4.592-0.097C170.676,48.698,170.076,48.658,170.076,48.616z"/>
		</g>
		<path style="fill:#E0E0E0;" d="M184.346,56.884c0,1.14-0.924,2.064-2.064,2.064c-1.14,0-2.064-0.924-2.064-2.064
			c0-1.14,0.924-2.064,2.064-2.064C183.422,54.819,184.346,55.744,184.346,56.884z"/>
		<path style="fill:#E0E0E0;" d="M84.855,58.948h-8.693c-0.273,0-0.494-0.221-0.494-0.494v-3.141c0-0.273,0.221-0.494,0.494-0.494
			h8.693c0.273,0,0.494,0.221,0.494,0.494v3.141C85.349,58.727,85.127,58.948,84.855,58.948z"/>
		<rect x="85.961" y="55.955" style="fill:#E0E0E0;" width="1.696" height="1.857"/>
	</g>
	<g>
		<g>
			<g>
				<g>
					<g>
						<path style="fill:#EBEBEB;" d="M390.454,449.686c-32.857-11.89-48.775-46.074-56.348-78.614
							c-1.265-5.431-3.381-10.947-2.091-16.358c1.293-5.41,6.398-10.243,11.827-9.271c4.503,0.807,7.495,4.988,10.765,8.233
							c4.35,4.317,9.921,7.359,15.864,8.664c3.905,0.857,8.438,0.805,11.32-1.971c3.954-3.81,2.777-10.371,1.305-15.716
							c-2.745-9.961-5.489-19.922-8.233-29.881c-1.472-5.344-2.957-10.806-2.658-16.334c0.299-5.528,2.71-11.237,7.418-14.033
							c4.711-2.795,11.797-1.552,14.28,3.399c1.034,2.06,1.198,4.443,1.944,6.625c0.746,2.183,2.442,4.363,4.719,4.415
							c2.305,0.053,4.039-2.04,5.218-4.037c4.073-6.89,5.95-14.861,7.593-22.728c1.643-7.867,3.138-15.87,6.567-23.113
							c3.429-7.243,9.108-13.779,16.657-16.274c7.551-2.495,16.991,0.041,20.952,7.047c3.972,7.025,1.627,15.866-1.522,23.263
							c-4.672,10.975-10.926,21.251-18.505,30.404c-1.365,1.651-2.847,3.437-2.959,5.594c-0.204,3.882,4.131,6.517,7.97,6.743
							c4.347,0.256,8.566-1.322,12.872-1.952c4.306-0.631,9.323-0.005,11.963,3.516c3.664,4.882,0.629,11.848-2.864,16.814
							c-6.994,9.946-15.693,18.656-25.594,25.632c-3.551,2.5-7.355,4.878-9.787,8.498c-2.432,3.622-3.055,8.947-0.123,12.202
							c2.935,3.259,8.184,3.142,12.103,1.267c3.918-1.872,7.009-5.105,10.541-7.645c6.61-4.754,16.247-6.801,22.668-1.71
							c4.22,3.347,6.057,9.093,5.83,14.496c-0.226,5.403-2.25,10.548-4.559,15.412c-8.072,17.003-20.173,32.198-35.649,42.703
							C424.464,445.477,409.081,451.329,390.454,449.686"/>
					</g>
				</g>
			</g>
		</g>
		<g>
			<g>
				<g>
					<g>
						<g>
							<path style="fill:#E0E0E0;" d="M396.457,473.705c-2.266-13.088-3.519-28.926-3.113-46.471
								c0.372-17.549,2.374-36.751,5.159-56.763c0.715-5,1.421-9.941,2.116-14.809c0.706-4.859,1.405-9.678,2.381-14.348
								c1.911-9.352,4.461-18.198,7.144-26.518c2.68-8.325,5.527-16.128,8.242-23.403c2.732-7.273,5.406-14.004,8.105-20.035
								c5.36-12.088,10.828-21.308,14.84-27.483c1.999-3.097,3.628-5.447,4.755-7.026c0.544-0.752,0.97-1.343,1.291-1.787
								c0.296-0.398,0.454-0.597,0.468-0.587c0.016,0.01-0.114,0.23-0.383,0.649c-0.3,0.459-0.701,1.069-1.208,1.844
								c-1.069,1.616-2.645,4.001-4.591,7.125c-3.902,6.234-9.254,15.476-14.514,27.566c-2.65,6.032-5.278,12.763-7.971,20.038
								c-2.679,7.284-5.492,15.085-8.143,23.397c-2.651,8.308-5.17,17.127-7.057,26.429c-0.964,4.646-1.652,9.423-2.356,14.295
								c-0.694,4.866-1.397,9.805-2.111,14.802c-2.781,19.996-4.806,39.148-5.23,56.643c-0.455,17.489,0.719,33.268,2.886,46.324"/>
						</g>
					</g>
				</g>
			</g>
		</g>
		<g>
			<g>
				<g>
					<g>
						<g>
							<path style="fill:#E0E0E0;" d="M403.271,341.2c-0.064,0.029-0.464-0.736-1.137-2.143c-0.679-1.404-1.594-3.466-2.686-6.032
								c-2.19-5.126-4.972-12.31-8.01-20.24c-3.039-7.936-5.915-15.058-8.177-20.137c-1.124-2.542-2.054-4.592-2.715-5.999
								c-0.654-1.413-0.986-2.21-0.924-2.244c0.063-0.033,0.513,0.702,1.276,2.063c0.771,1.355,1.804,3.363,3.014,5.876
								c2.439,5.019,5.434,12.129,8.474,20.072c2.978,7.834,5.671,14.921,7.728,20.336c0.945,2.441,1.743,4.497,2.384,6.147
								C403.056,340.352,403.336,341.171,403.271,341.2z"/>
						</g>
					</g>
				</g>
			</g>
		</g>
		<g>
			<g>
				<g>
					<g>
						<g>
							<path style="fill:#E0E0E0;" d="M468.639,309.836c0.02,0.068-0.928,0.445-2.657,1.067c-1.724,0.632-4.223,1.533-7.274,2.745
								c-6.121,2.375-14.461,5.952-23.49,10.301c-9.024,4.366-17.023,8.665-22.717,11.942c-2.861,1.618-5.14,2.99-6.721,3.929
								c-1.578,0.945-2.469,1.44-2.509,1.381c-0.039-0.061,0.78-0.669,2.295-1.721c1.519-1.044,3.747-2.515,6.568-4.22
								c5.617-3.447,13.59-7.862,22.64-12.243c9.056-4.36,17.474-7.845,23.679-10.051c3.094-1.128,5.637-1.928,7.406-2.443
								C467.63,310.015,468.617,309.767,468.639,309.836z"/>
						</g>
					</g>
				</g>
			</g>
		</g>
		<g>
			<g>
				<g>
					<g>
						<g>
							<path style="fill:#E0E0E0;" d="M393.85,425.741c-0.028,0.023-0.266-0.223-0.698-0.712c-0.499-0.588-1.108-1.305-1.846-2.174
								c-1.595-1.895-3.831-4.696-6.549-8.194c-5.44-6.992-12.651-16.887-20.46-27.913c-7.814-11.03-14.922-20.979-20.208-28.074
								c-2.582-3.446-4.707-6.28-6.286-8.386c-0.679-0.916-1.239-1.671-1.698-2.292c-0.379-0.53-0.565-0.819-0.538-0.844
								c0.028-0.02,0.267,0.225,0.698,0.715c0.499,0.587,1.108,1.303,1.846,2.172c1.595,1.895,3.831,4.696,6.549,8.194
								c5.44,6.992,12.651,16.887,20.463,27.918c7.811,11.027,14.919,20.974,20.206,28.071c2.583,3.444,4.707,6.28,6.285,8.385
								c0.68,0.916,1.24,1.673,1.698,2.292C393.691,425.429,393.878,425.719,393.85,425.741z"/>
						</g>
					</g>
				</g>
			</g>
		</g>
		<g>
			<g>
				<g>
					<g>
						<g>
							<path style="fill:#E0E0E0;" d="M477.385,371.679c0.018,0.031-0.261,0.243-0.807,0.618c-0.651,0.432-1.449,0.962-2.417,1.604
								c-2.24,1.455-5.263,3.419-8.941,5.806c-7.548,4.905-17.896,11.799-29.32,19.432c-11.426,7.637-21.848,14.442-29.501,19.191
								c-3.825,2.376-6.94,4.267-9.118,5.53c-1.009,0.577-1.842,1.052-2.517,1.44c-0.581,0.319-0.897,0.472-0.915,0.441
								c-0.018-0.031,0.261-0.242,0.807-0.62c0.649-0.43,1.448-0.959,2.417-1.602c2.239-1.455,5.261-3.417,8.939-5.806
								c7.549-4.904,17.898-11.799,29.325-19.435c11.423-7.634,21.843-14.439,29.496-19.188c3.825-2.377,6.94-4.268,9.12-5.531
								c1.009-0.577,1.839-1.053,2.517-1.44C477.052,371.8,477.366,371.648,477.385,371.679z"/>
						</g>
					</g>
				</g>
			</g>
		</g>
	</g>
</g>
<g id="Background_Simple" style="display:none;">
	<path style="display:inline;fill:#EBEBEB;" d="M449.366,109.404c-8.865-23.801-23.697-46.633-46.176-58.455
		c-18.548-9.755-40.741-11.059-61.252-6.76c-37.058,7.767-70.561,35.243-80.858,71.68c-4.416,15.626-4.603,32.095-7.092,48.141
		c-2.49,16.046-7.852,32.592-20.084,43.271c-13.454,11.747-32.661,14.207-50.507,13.482c-17.846-0.725-35.734-4.092-53.455-1.871
		c-22.509,2.821-43.692,15.033-57.412,33.099s-19.8,41.749-16.476,64.189c4.071,48.269,62.268,85.158,99.286,91.838
		c37.018,6.68,93.701,2.342,130.381-5.997c52.933-12.033,89.198-33.724,124.742-74.752
		C453.377,277.735,472.243,170.82,449.366,109.404z"/>
	<path style="display:inline;fill:#EBEBEB;" d="M196.572,83.297c-6.494-10.019-17.265-15.956-29.08-18.468
		c-11.519-2.45-23.542-0.508-33.921,5.057l0,0c-12.076,6.11-19.408,19.975-18.798,33.495s8.615,26.223,19.932,33.645
		c15.913,10.436,38.63,9.944,53.251-2.237C202.578,122.608,206.923,99.265,196.572,83.297z"/>
</g>
<g id="Floor">
	<g>
		<path style="fill:#263238;" d="M462.507,471.174c0,0.144-97.097,0.26-216.845,0.26c-119.789,0-216.866-0.117-216.866-0.26
			s97.076-0.26,216.866-0.26C365.41,470.914,462.507,471.03,462.507,471.174z"/>
	</g>
</g>
<g id="Character">
	<g>
		<path style="fill:#FFBE9D;" d="M150.134,279.507l-2.773,90.792c0,9.905,4.966,19.151,13.225,24.62v0
			c11.54,7.642,26.839,6.243,36.802-3.365l29.685-28.627l-3.201-66.903l-39.655,40.763l-1.993-57.957L150.134,279.507z"/>
		<polygon style="fill:#E8505B;" points="268.641,245.078 229.229,263.09 187.514,324.621 222.307,370.18 248.952,358.487 		"/>
		<g>
			<path style="fill:#EB996E;" d="M183.734,336.239c0.144,0,0.26,6.786,0.26,15.156c0,8.372-0.117,15.157-0.26,15.157
				c-0.144,0-0.26-6.785-0.26-15.157C183.474,343.025,183.59,336.239,183.734,336.239z"/>
		</g>
	</g>
	<g>
		<polygon style="fill:#E8505B;" points="243.695,257.904 264.2,247.348 275.978,233.979 330.889,230.368 346.035,241.924 
			383.617,253.142 375.852,355.904 383.431,470.915 229.229,470.571 229.229,358.797 		"/>
		<g>
			<path style="fill:#263238;" d="M229.017,321.594c0.144,0,0.308,29.66,0.366,66.239c0.058,36.592-0.011,66.246-0.155,66.246
				c-0.144,0-0.308-29.654-0.366-66.246C228.804,351.254,228.874,321.594,229.017,321.594z"/>
		</g>
		<g>
			<path style="fill:#263238;" d="M307.595,336.256c-0.001,0.019-0.27,0.021-0.781,0.01c-0.563-0.019-1.305-0.045-2.234-0.077
				c-1.997-0.093-4.787-0.222-8.21-0.381l-0.182-0.008l0.004-0.184c0.131-6.474,0.309-15.219,0.504-24.85
				c0.26-9.939,0.496-18.933,0.668-25.513c0.109-3.221,0.198-5.847,0.262-7.73c0.04-0.871,0.073-1.57,0.098-2.101
				c0.028-0.48,0.051-0.732,0.069-0.732c0.018,0,0.03,0.253,0.035,0.734c0,0.532,0,1.231,0,2.103
				c-0.023,1.884-0.056,4.512-0.097,7.734c-0.133,6.581-0.315,15.576-0.516,25.517c-0.251,9.629-0.479,18.374-0.648,24.846
				l-0.178-0.192c3.419,0.229,6.206,0.416,8.201,0.549c0.927,0.073,1.668,0.132,2.229,0.177
				C307.329,336.204,307.596,336.237,307.595,336.256z"/>
		</g>
		<g>
			<path style="fill:#263238;" d="M304.527,288.846c-0.001-0.017,0.298-0.055,0.794,0.129c0.493,0.176,1.155,0.638,1.648,1.456
				c0.465,0.802,0.796,2.025,0.284,3.249c-0.256,0.594-0.735,1.147-1.368,1.464c-0.626,0.326-1.36,0.463-2.094,0.41
				c-0.733-0.067-1.436-0.321-2.001-0.744c-0.573-0.416-0.957-1.038-1.113-1.666c-0.307-1.291,0.217-2.444,0.807-3.16
				c0.619-0.727,1.347-1.076,1.862-1.169c0.519-0.101,0.808-0.016,0.804,0.001c0.001,0.054-0.286,0.042-0.752,0.195
				c-0.464,0.145-1.097,0.515-1.626,1.203c-0.505,0.679-0.918,1.734-0.631,2.809c0.255,1.086,1.4,1.915,2.692,2.013
				c1.29,0.112,2.554-0.521,2.981-1.551c0.458-1.015,0.221-2.123-0.167-2.874c-0.41-0.764-0.975-1.232-1.41-1.45
				C304.803,288.934,304.518,288.9,304.527,288.846z"/>
		</g>
		<g>
			<path style="fill:#263238;" d="M304.411,308.689c-0.001-0.017,0.298-0.055,0.794,0.129c0.493,0.176,1.155,0.638,1.648,1.456
				c0.465,0.802,0.796,2.025,0.284,3.249c-0.256,0.595-0.735,1.147-1.368,1.464c-0.626,0.326-1.36,0.463-2.094,0.41
				c-0.733-0.067-1.436-0.321-2.001-0.744c-0.573-0.416-0.957-1.038-1.113-1.666c-0.307-1.291,0.217-2.445,0.807-3.16
				c0.619-0.727,1.347-1.076,1.862-1.169c0.519-0.101,0.808-0.016,0.804,0.001c0.001,0.054-0.285,0.042-0.752,0.195
				c-0.464,0.145-1.097,0.515-1.626,1.203c-0.505,0.679-0.918,1.734-0.631,2.809c0.255,1.086,1.4,1.915,2.692,2.013
				c1.29,0.112,2.554-0.521,2.982-1.551c0.458-1.015,0.221-2.123-0.168-2.874c-0.41-0.764-0.975-1.232-1.41-1.45
				C304.686,308.776,304.401,308.742,304.411,308.689z"/>
		</g>
		<g style="opacity:0.3;">
			<path d="M253.05,341.149c13.916,18.96,24.815,40.15,40.324,57.831c15.508,17.681,37.296,31.999,60.787,30.859
				c7.494-0.364,20.685-2.886,26.026-8.155l-1.968-20.137c-38.337-10.015-74.264-29.131-103.991-55.329
				c-5.221-4.602-11.247-9.76-18.151-8.889"/>
		</g>
	</g>
	<g>
		<g>
			<g>
				<ellipse style="fill:#E8505B;" cx="260.505" cy="161.401" rx="15.49" ry="16.585"/>
				<g>
					<path style="fill:#263238;" d="M261.73,144.816c-0.026,0.069,0.626,0.292,1.711,0.865c1.075,0.572,2.627,1.489,4.068,3.12
						c1.449,1.611,2.689,3.949,3.359,6.751c0.728,2.791,0.871,6.015-0.036,9.216c-0.874,3.194-2.587,5.964-4.629,7.966
						c-2.028,2.034-4.404,3.243-6.5,3.769c-2.106,0.551-3.907,0.383-5.078,0.087c-1.179-0.303-1.778-0.654-1.812-0.588
						c-0.012,0.022,0.129,0.12,0.412,0.287c0.28,0.174,0.724,0.381,1.321,0.576c1.185,0.393,3.066,0.653,5.278,0.144
						c2.197-0.479,4.714-1.698,6.852-3.789c2.153-2.059,3.956-4.933,4.866-8.258c0.947-3.318,0.769-6.733-0.017-9.577
						c-0.726-2.881-2.072-5.306-3.632-6.937c-1.552-1.653-3.196-2.525-4.328-3.027c-0.571-0.254-1.029-0.41-1.345-0.499
						C261.906,144.83,261.739,144.792,261.73,144.816z"/>
				</g>
				<g>
					<path style="fill:#263238;" d="M273.941,169.998c0.093,0.008,0.229-0.305,0.175-0.839c-0.049-0.523-0.335-1.266-0.979-1.816
						c-0.646-0.549-1.424-0.715-1.949-0.68c-0.535,0.031-0.823,0.214-0.801,0.305c0.025,0.199,1.259,0.066,2.272,0.934
						C273.677,168.766,273.74,170.004,273.941,169.998z"/>
				</g>
				<g>
					<path style="fill:#263238;" d="M273.297,164.897c0.071-0.187-0.399-0.529-1.077-0.549c-0.678-0.022-1.168,0.292-1.108,0.483
						c0.057,0.198,0.536,0.232,1.086,0.253C272.748,165.097,273.228,165.092,273.297,164.897z"/>
				</g>
				<g>
					<path style="fill:#263238;" d="M273.295,151.198c0.095-0.179-0.828-0.657-1.923-0.225c-1.098,0.424-1.454,1.4-1.263,1.468
						c0.182,0.103,0.693-0.472,1.53-0.782C272.465,151.32,273.231,151.398,273.295,151.198z"/>
				</g>
			</g>
			<g>
				<g>
					<g>
						<g>
							<g>
								<g>
									<g>
										<g>
											<g>
												<g>
													<path style="fill:#FFBE9D;" d="M301.023,272.921L301.023,272.921c-15.268-1.219-26.803-14.355-26.042-29.653
														c0.534-10.734,1.088-20.415,1.088-20.415s-23.015-3.579-23.299-26.59c-0.284-23.011,3.705-75.851,3.705-75.851l0,0
														c26.638-11.448,57.384-7.583,80.36,10.102l3.41,2.625l-8.717,113.705C330.329,262.481,316.656,274.17,301.023,272.921z
														"/>
												</g>
											</g>
										</g>
									</g>
									<g>
										<g>
											<g>
												<g>
													<path style="fill:#EB996E;" d="M276.031,222.521c0,0,14.543,1.183,29.999-8.526c0,0-7.091,16.561-30.053,14.488
														L276.031,222.521z"/>
												</g>
											</g>
										</g>
									</g>
								</g>
							</g>
						</g>
						<g>
							<g>
								<g>
									<g>
										<g>
											<g>
												<g>
													<g>
														<g>
															<g>
																<path style="fill:#263238;" d="M293.162,182.115c-0.575-0.034-0.582,3.805-3.868,6.529
																	c-3.279,2.733-7.371,2.302-7.401,2.839c-0.053,0.241,0.911,0.745,2.638,0.792c1.694,0.058,4.168-0.486,6.178-2.153
																	c2.004-1.671,2.866-3.9,2.997-5.475C293.853,183.043,293.425,182.092,293.162,182.115z"/>
															</g>
														</g>
													</g>
												</g>
											</g>
										</g>
									</g>
								</g>
								<g>
									<g>
										<g>
											<g>
												<path style="fill:#263238;" d="M294.676,139.585c0.349,0.962,3.88,0.506,8.028,1.006
													c4.159,0.416,7.505,1.631,8.055,0.769c0.245-0.413-0.337-1.317-1.69-2.248c-1.341-0.929-3.48-1.813-5.97-2.09
													c-2.491-0.272-4.771,0.123-6.282,0.738C295.293,138.373,294.526,139.129,294.676,139.585z"/>
											</g>
										</g>
									</g>
								</g>
								<g>
									<g>
										<g>
											<g>
												<path style="fill:#263238;" d="M260.289,147.511c0.628,0.869,3.478,0.313,6.811,0.604
													c3.341,0.188,6.095,1.145,6.827,0.373c0.325-0.378-0.04-1.222-1.197-2.101c-1.139-0.874-3.108-1.691-5.402-1.857
													c-2.293-0.162-4.348,0.366-5.587,1.07C260.484,146.305,260.016,147.09,260.289,147.511z"/>
											</g>
										</g>
									</g>
								</g>
							</g>
						</g>
					</g>
				</g>
				<g>
					<g>
						<g>
							<g>
								<g>
									<path style="fill:#FFBE9D;" d="M337.409,156.975c0.392-0.17,15.811-4.676,15.308,11.056
										c-0.503,15.732-16.193,11.982-16.206,11.53C336.498,179.109,337.409,156.975,337.409,156.975z"/>
								</g>
							</g>
						</g>
					</g>
					<g>
						<g>
							<g>
								<g>
									<g>
										<path style="fill:#EB996E;" d="M341.508,173.754c0.071-0.048,0.268,0.2,0.724,0.428c0.445,0.221,1.217,0.388,2.047,0.107
											c1.681-0.557,3.165-3.15,3.332-5.984c0.086-1.431-0.171-2.804-0.642-3.949c-0.443-1.166-1.162-1.994-1.994-2.17
											c-0.826-0.219-1.435,0.263-1.642,0.7c-0.225,0.433-0.135,0.751-0.219,0.774c-0.046,0.038-0.329-0.274-0.182-0.92
											c0.075-0.31,0.271-0.676,0.65-0.966c0.388-0.295,0.947-0.434,1.529-0.352c1.21,0.122,2.267,1.274,2.785,2.53
											c0.585,1.265,0.906,2.809,0.81,4.415c-0.202,3.167-1.92,6.082-4.215,6.667c-1.116,0.253-2.028-0.11-2.493-0.497
											C341.523,174.135,341.452,173.781,341.508,173.754z"/>
									</g>
								</g>
							</g>
						</g>
					</g>
				</g>
				<g>
					<path style="fill:#263238;" d="M247.666,100.533c3.342-6.601,9.848-11.507,17.114-12.904
						c7.265-1.397,15.128,0.746,20.679,5.636c3.479-6.928,10.535-11.936,18.224-12.933c0.481-0.062,0.963-0.109,1.446-0.14
						c10.214-0.658,19.215,6.741,21.294,16.762l1.132,5.456c0,0,19.452,6.622,23.95,10.231c4.952,3.973,7.419,10.812,6.146,17.031
						c-1.273,6.22-6.23,11.538-12.345,13.246c4.934,8.9,0.309,21.668-9.182,25.341l-2.294-0.951
						c-8.705-9.557-10.695-24.639-4.764-36.126c-0.282,0.014-0.549-0.03-0.825-0.037c-3.03,1.653-6.515,2.482-9.964,2.28
						c-5.502-0.322-10.794-3.257-13.98-7.754c-6.282,4.532-15.285,4.911-21.925,0.923c-1.047-0.629-2.09-1.374-3.304-1.503
						c-1.446-0.154-2.814,0.593-4.119,1.234c-3.452,1.694-7.332,2.801-11.138,2.249c-3.55-0.515-6.96-2.722-8.364-5.985
						c-0.087-0.013-0.174-0.014-0.261-0.031c-4.435-0.802-7.992-4.586-9.213-8.925C244.75,109.296,245.63,104.554,247.666,100.533z"
						/>
				</g>
			</g>
			<path style="fill:#E8505B;" d="M349.051,156.25c0,0,9.676-46.533-17.194-53.84h-4.303c0,0,19.208,14.943,12.691,52.428"/>
			<g>
				<ellipse style="fill:#E8505B;" cx="341.492" cy="170.002" rx="15.49" ry="16.585"/>
				<g>
					<path style="fill:#263238;" d="M340.266,153.417c-0.008-0.024-0.176,0.014-0.49,0.108c-0.316,0.089-0.774,0.244-1.345,0.498
						c-1.131,0.502-2.776,1.374-4.328,3.027c-1.561,1.63-2.907,4.056-3.632,6.936c-0.786,2.844-0.963,6.259-0.017,9.577
						c0.91,3.325,2.713,6.199,4.866,8.258c2.139,2.091,4.655,3.309,6.852,3.789c2.211,0.509,4.093,0.249,5.277-0.144
						c0.597-0.196,1.041-0.402,1.321-0.576c0.284-0.168,0.425-0.265,0.412-0.287c-0.033-0.066-0.632,0.285-1.812,0.588
						c-1.171,0.297-2.972,0.464-5.078-0.087c-2.097-0.526-4.473-1.735-6.501-3.769c-2.042-2.003-3.755-4.772-4.629-7.966
						c-0.906-3.201-0.764-6.425-0.036-9.216c0.67-2.803,1.909-5.14,3.359-6.751c1.44-1.631,2.993-2.548,4.068-3.12
						C339.64,153.709,340.292,153.486,340.266,153.417z"/>
				</g>
				<g>
					<path style="fill:#263238;" d="M328.055,178.599c0.201,0.006,0.264-1.233,1.282-2.096c1.013-0.869,2.247-0.735,2.272-0.934
						c0.023-0.091-0.265-0.274-0.801-0.305c-0.524-0.035-1.303,0.131-1.949,0.68c-0.644,0.55-0.931,1.293-0.979,1.816
						C327.827,178.294,327.962,178.607,328.055,178.599z"/>
				</g>
				<g>
					<path style="fill:#263238;" d="M328.699,173.498c0.069,0.195,0.549,0.2,1.099,0.187c0.55-0.021,1.029-0.055,1.086-0.253
						c0.06-0.191-0.43-0.504-1.108-0.483C329.098,172.969,328.628,173.311,328.699,173.498z"/>
				</g>
				<g>
					<path style="fill:#263238;" d="M328.701,159.8c0.064,0.199,0.83,0.122,1.655,0.46c0.836,0.31,1.348,0.885,1.53,0.782
						c0.191-0.068-0.165-1.044-1.263-1.468C329.529,159.143,328.607,159.62,328.701,159.8z"/>
				</g>
			</g>
			<g>
				<path style="fill:#263238;" d="M310.76,85.117c0.001,0.122,1.898,0.083,4.925,0.236c1.509,0.097,3.308,0.273,5.216,0.802
					c1.9,0.513,3.896,1.486,5.558,3.016c1.665,1.525,2.691,3.52,2.871,5.454c0.211,1.937-0.268,3.703-0.801,5.091
					c-1.134,2.788-2.386,4.259-2.26,4.34c0.035,0.027,0.373-0.309,0.89-0.996c0.514-0.687,1.218-1.725,1.85-3.144
					c0.613-1.41,1.183-3.254,0.995-5.358c-0.153-2.102-1.268-4.306-3.045-5.925c-1.77-1.63-3.892-2.633-5.883-3.132
					c-1.993-0.513-3.84-0.636-5.372-0.667c-1.536-0.022-2.772,0.045-3.624,0.107C311.228,85.004,310.758,85.067,310.76,85.117z"/>
			</g>
			<g>
				<path style="fill:#263238;" d="M329.991,84.275c-0.104,0.071,0.607,1.042,1.271,2.813c0.669,1.751,1.196,4.387,0.69,7.209
					c-0.511,2.822-1.926,5.109-3.164,6.515c-1.241,1.428-2.246,2.089-2.174,2.192c0.035,0.068,1.161-0.445,2.555-1.838
					c1.386-1.368,2.965-3.741,3.507-6.739c0.538-2.997-0.112-5.772-0.933-7.538C330.924,85.097,330.048,84.224,329.991,84.275z"/>
			</g>
			<g>
				<path style="fill:#455A64;" d="M261.874,103.743c-0.023,0.006,0.01,0.192,0.094,0.544c0.08,0.353,0.24,0.865,0.508,1.503
					c0.527,1.269,1.535,3.075,3.393,4.786c1.829,1.696,4.604,3.282,8.012,3.556c3.357,0.302,7.272-0.651,10.349-3.234l-0.538-0.072
					c0.653,0.935,1.443,1.853,2.341,2.681c3.241,2.978,7.448,4.421,11.233,4.397c3.828,0.018,7.094-1.473,9.372-3.139
					c2.31-1.689,3.695-3.596,4.473-4.966c0.385-0.692,0.648-1.249,0.787-1.641c0.148-0.389,0.213-0.596,0.19-0.606
					c-0.066-0.029-0.387,0.785-1.221,2.099c-0.838,1.3-2.253,3.107-4.531,4.691c-2.248,1.563-5.412,2.94-9.067,2.885
					c-3.62-0.012-7.644-1.417-10.738-4.261c-0.857-0.79-1.611-1.664-2.235-2.552l-0.232-0.33l-0.306,0.258
					c-2.897,2.447-6.62,3.391-9.824,3.141c-3.247-0.22-5.922-1.679-7.737-3.272c-1.838-1.604-2.885-3.319-3.477-4.53
					C262.13,104.457,261.936,103.725,261.874,103.743z"/>
			</g>
			<g>
				<path style="fill:#455A64;" d="M260.319,119.914c-0.062,0.053,0.554,0.908,1.941,1.862c1.366,0.951,3.587,1.921,6.185,1.991
					c2.599,0.069,4.869-0.781,6.284-1.658c1.436-0.878,2.096-1.699,2.037-1.755c-0.079-0.092-0.853,0.576-2.289,1.3
					c-1.421,0.727-3.578,1.442-6.013,1.378c-2.434-0.066-4.549-0.895-5.93-1.697C261.14,120.535,260.403,119.826,260.319,119.914z"
					/>
			</g>
			<g>
				<g>
					<g>
						<g>
							<g>
								<g>
									<g>
										<g>
											<path style="fill:#263238;" d="M260.521,158.023c0.408,0.429,2.902-1.416,6.445-1.407
												c3.539-0.041,6.138,1.781,6.523,1.347c0.189-0.192-0.227-0.967-1.359-1.791c-1.114-0.821-3.015-1.619-5.222-1.609
												c-2.207,0.012-4.063,0.825-5.129,1.656C260.689,157.054,260.32,157.831,260.521,158.023z"/>
										</g>
									</g>
								</g>
							</g>
						</g>
						<g>
							<g>
								<g>
									<g>
										<path style="fill:#263238;" d="M298.538,157.813c-0.061,1.738,1.36,3.224,3.174,3.321
											c1.811,0.097,3.332-1.229,3.393-2.968c0.061-1.738-1.36-3.226-3.171-3.324
											C300.12,154.745,298.599,156.075,298.538,157.813z"/>
									</g>
								</g>
							</g>
							<g>
								<g>
									<g>
										<g>
											<path style="fill:#263238;" d="M295.341,153.941c0.409,0.429,2.906-1.416,6.446-1.407
												c3.538-0.041,6.138,1.781,6.523,1.347c0.188-0.192-0.223-0.966-1.36-1.79c-1.114-0.821-3.014-1.619-5.221-1.61
												c-2.207,0.012-4.063,0.824-5.13,1.656C295.513,152.973,295.142,153.749,295.341,153.941z"/>
										</g>
									</g>
								</g>
							</g>
						</g>
						<g>
							<g>
								<g>
									<g>
										<path style="fill:#263238;" d="M282.485,180.212c0.016-0.202-2.185-0.581-5.754-1.038
											c-0.904-0.093-1.76-0.273-1.913-0.891c-0.214-0.654,0.165-1.629,0.604-2.681c0.85-2.189,1.741-4.483,2.675-6.888
											c3.715-9.807,6.404-17.871,6.008-18.017c-0.396-0.146-3.729,7.684-7.444,17.492c-0.894,2.418-1.749,4.723-2.563,6.929
											c-0.342,1.028-0.931,2.194-0.469,3.55c0.243,0.676,0.907,1.167,1.487,1.323c0.58,0.177,1.089,0.187,1.536,0.214
											C280.244,180.397,282.472,180.414,282.485,180.212z"/>
									</g>
								</g>
							</g>
						</g>
					</g>
				</g>
			</g>
		</g>
		<polygon style="fill:#E8505B;" points="275.431,234.501 296.5,264.679 298.411,272.59 301.822,264.679 334.443,233.08 
			334.443,263.394 310.081,278.041 296.5,279.507 275.978,271.809 270.06,259.497 		"/>
		<g>
			<path style="fill:#263238;" d="M295.654,264.696c0.001,0.051-0.556,0.022-1.542,0.216c-0.977,0.21-2.381,0.724-3.843,1.838
				c-2.954,2.191-6.006,6.609-8.189,12.166l-0.195,0.497l-0.259-0.461c-1.171-2.082-2.428-4.32-3.728-6.632
				c-3.805-6.849-7.247-13.045-9.781-17.607c-1.204-2.218-2.19-4.035-2.912-5.365c-0.312-0.597-0.566-1.084-0.769-1.471
				c-0.171-0.339-0.253-0.522-0.237-0.53c0.016-0.009,0.128,0.156,0.329,0.479c0.225,0.374,0.507,0.846,0.854,1.424
				c0.757,1.309,1.793,3.099,3.056,5.284c2.568,4.542,6.057,10.712,9.914,17.532c1.294,2.315,2.546,4.556,3.711,6.641l-0.454,0.036
				c2.247-5.635,5.387-10.065,8.473-12.25c1.525-1.106,2.992-1.59,3.999-1.75c0.51-0.063,0.902-0.098,1.17-0.078
				C295.517,264.671,295.655,264.681,295.654,264.696z"/>
		</g>
		<g>
			<path style="fill:#263238;" d="M343.889,241.962c0.015,0.01-0.108,0.216-0.355,0.599c-0.281,0.423-0.647,0.975-1.103,1.66
				c-0.974,1.43-2.414,3.48-4.256,5.967c-3.686,4.97-9.035,11.661-15.465,18.585c-4.188,4.523-8.318,8.577-11.915,11.922
				l-0.249,0.231l-0.118-0.317c-1.807-4.857-3.832-8.697-5.352-11.315c-0.761-1.31-1.393-2.32-1.825-3.01
				c-0.435-0.687-0.664-1.057-0.643-1.071c0.01-0.007,0.081,0.076,0.209,0.243c0.149,0.203,0.33,0.45,0.55,0.75
				c0.47,0.666,1.14,1.656,1.937,2.951c1.592,2.588,3.686,6.419,5.547,11.292l-0.366-0.086c3.56-3.371,7.663-7.432,11.842-11.946
				c6.416-6.908,11.797-13.546,15.553-18.452c1.876-2.455,3.361-4.469,4.384-5.862c0.488-0.662,0.881-1.194,1.182-1.603
				C343.722,242.138,343.874,241.952,343.889,241.962z"/>
		</g>
		<g style="opacity:0.3;">
			<path d="M297.807,284.627c1.686-2.062,1.463-5.753,3.978-6.664c1.255-0.455,2.644,0.031,3.554,1.008
				c2.33,2.501,1.664,6.181,3.779,8.807c0.394,0.489,0.893,0.902,1.469,1.154c2.403,1.053,4.417-0.804,5.984-2.499
				c2.968-3.21,5.904-6.449,8.806-9.718c3.712-4.179,7.392-8.436,10.235-13.249c2.843-4.813,4.832-10.253,4.872-15.842
				c-9.121,11.641-18.885,22.975-29.844,32.906c-1.273-4.583-4.048-9.173-6.588-13.148c-0.36-0.564-1.606-2.458-2.23-2.703
				c-0.321-0.126,0.315-0.141,0,0l-3.411,7.911c0,0-1.529-6.435-1.911-7.911c-1.323-0.092-2.67,0.116-4.042,0.639
				c0,0-1.385,0.609-2.805,1.702c-3.865,2.975-6.365,6.627-7.311,11.412c2.108-0.488,3.646-2.227,5.276-3.65
				c1.63-1.423,3.863-2.649,5.876-1.856c2.071,0.816,2.844,3.348,2.965,5.571c0.122,2.223-0.107,4.593,0.98,6.536"/>
		</g>
		<polygon style="fill:#455A64;" points="339.963,140.892 340.245,150.773 351.366,152.174 351.731,141.852 		"/>
		<g>
			<path style="fill:#455A64;" d="M347.896,92.955c0.144,0,0.26,13.201,0.26,29.482c0,16.286-0.117,29.485-0.26,29.485
				c-0.144,0-0.26-13.198-0.26-29.485C347.636,106.156,347.752,92.955,347.896,92.955z"/>
		</g>
		<g>
			<path style="fill:#455A64;" d="M345.362,322.374c0,0-0.023-0.185-0.041-0.546c-0.017-0.382-0.04-0.915-0.07-1.604
				c-0.051-1.432-0.124-3.506-0.217-6.168c-0.167-5.378-0.407-13.124-0.703-22.687c-0.278-9.585-0.608-20.988-0.975-33.649
				c-0.112-3.157-0.132-6.432-0.324-9.705c-0.154-1.59-0.619-3.302-1.936-4.251c-0.635-0.476-1.431-0.77-2.211-0.736
				c-0.775,0.029-1.526,0.46-1.865,1.156c-0.675,1.406,0.095,3.426,1.573,4.031c1.539,0.612,3.385-0.04,4.563-1.239
				c1.207-1.209,1.745-2.981,1.89-4.727c0.122-1.759,0.06-3.602-0.4-5.314c-0.284-0.997-0.747-1.953-1.457-2.671
				c-0.704-0.723-1.64-1.232-2.619-1.348c-0.984-0.125-1.977,0.236-2.562,1.021c-0.58,0.753-0.849,1.837-0.425,2.662
				c0.402,0.846,1.426,1.225,2.363,1.081c0.952-0.127,1.832-0.649,2.364-1.45c1.097-1.617,1.163-3.746,1.102-5.673
				c-0.059-0.973-0.23-1.938-0.618-2.799c-0.391-0.849-0.994-1.63-1.83-1.981c-0.827-0.363-1.811-0.411-2.636-0.091
				c-0.831,0.298-1.416,1.113-1.345,1.965c0.028,0.413,0.21,0.808,0.488,1.134c0.292,0.318,0.658,0.569,1.052,0.762
				c0.802,0.359,1.726,0.474,2.551,0.239c0.817-0.223,1.481-0.871,1.952-1.59c0.481-0.725,0.753-1.572,0.927-2.424
				c0.315-1.715,0.264-3.492,0.071-5.172c-0.209-1.645-0.869-3.349-2.301-4.075c-0.689-0.369-1.502-0.521-2.234-0.355
				c-0.723,0.158-1.365,0.698-1.534,1.393c-0.189,0.696,0.073,1.455,0.494,2.047c0.422,0.601,1.044,1.052,1.714,1.271
				c0.679,0.23,1.398,0.085,2.014-0.247c0.621-0.326,1.098-0.871,1.444-1.465c0.69-1.206,0.832-2.663,0.523-3.932
				c-0.328-1.286-1.044-2.409-1.866-3.358c-0.826-0.955-1.755-1.763-2.669-2.517l-0.063-0.052l0.005-0.08
				c0.44-6.955,0.788-12.459,1.028-16.247c0.128-1.866,0.226-3.308,0.294-4.306c0.037-0.474,0.066-0.839,0.087-1.107
				c0.022-0.248,0.044-0.374,0.044-0.374s0.007,0.127,0,0.376c-0.011,0.269-0.025,0.634-0.044,1.109
				c-0.049,0.999-0.12,2.443-0.212,4.311c-0.206,3.79-0.504,9.296-0.882,16.255l-0.058-0.132c0.925,0.753,1.872,1.565,2.725,2.54
				c0.849,0.97,1.605,2.13,1.96,3.491c0.337,1.362,0.197,2.9-0.541,4.21c-0.371,0.645-0.892,1.249-1.587,1.619
				c-0.67,0.374-1.541,0.551-2.319,0.288c-0.77-0.248-1.455-0.747-1.931-1.415c-0.469-0.657-0.792-1.522-0.566-2.392
				c0.212-0.869,0.992-1.514,1.843-1.703c0.859-0.196,1.763-0.021,2.533,0.386c0.785,0.396,1.41,1.098,1.802,1.879
				c0.407,0.785,0.62,1.651,0.742,2.519c0.204,1.738,0.263,3.518-0.061,5.323c-0.18,0.893-0.465,1.797-0.988,2.592
				c-0.253,0.4-0.568,0.768-0.933,1.08c-0.348,0.328-0.814,0.575-1.283,0.712c-0.959,0.272-1.983,0.142-2.886-0.259
				c-0.446-0.217-0.867-0.501-1.215-0.88c-0.335-0.388-0.574-0.889-0.611-1.422c-0.099-1.08,0.667-2.108,1.651-2.457
				c0.973-0.375,2.067-0.318,3.021,0.095c0.983,0.418,1.661,1.308,2.085,2.229c0.425,0.941,0.603,1.964,0.666,2.977
				c0.055,1.017,0.02,2.031-0.121,3.054c-0.151,1.015-0.445,2.059-1.067,2.944c-0.6,0.906-1.627,1.527-2.717,1.666
				c-1.072,0.174-2.373-0.272-2.893-1.362c-0.533-1.075-0.191-2.333,0.479-3.211c0.346-0.446,0.81-0.812,1.352-1.02
				c0.538-0.202,1.115-0.267,1.676-0.199c1.125,0.135,2.155,0.704,2.933,1.5c0.793,0.804,1.284,1.836,1.586,2.893
				c0.486,1.823,0.542,3.672,0.418,5.502c-0.155,1.815-0.706,3.704-2.042,5.048c-1.285,1.302-3.318,2.056-5.12,1.351
				c-0.894-0.373-1.557-1.142-1.879-2.009c-0.339-0.858-0.375-1.864,0.041-2.729c0.425-0.874,1.371-1.405,2.297-1.434
				c0.932-0.037,1.822,0.305,2.536,0.837c0.729,0.527,1.255,1.302,1.57,2.107c0.323,0.811,0.476,1.663,0.56,2.5
				c0.191,3.346,0.202,6.568,0.309,9.742c0.325,12.661,0.618,24.066,0.864,33.652c0.227,9.565,0.41,17.312,0.537,22.691
				c0.052,2.663,0.092,4.738,0.12,6.17c0.008,0.69,0.014,1.223,0.018,1.605C345.375,322.188,345.362,322.374,345.362,322.374z"/>
		</g>
		<polygon style="fill:#E8505B;" points="339.498,186.447 339.498,192.279 342.393,192.279 342.817,186.587 		"/>
	</g>
	<g>
		<g>
			<g>
				<path style="fill:#263238;" d="M195.009,181.049c-0.097-0.004,0.064-1.572-0.076-4.074c-0.095-1.242-0.29-2.738-0.939-4.236
					c-0.63-1.497-1.813-2.93-3.471-3.825c-1.646-0.911-3.456-1.284-5.088-1.364c-1.644-0.07-3.132,0.115-4.37,0.313
					c-2.476,0.428-4,0.806-4.019,0.72c-0.008-0.035,0.362-0.163,1.041-0.362c0.68-0.195,1.667-0.469,2.913-0.72
					c1.244-0.247,2.756-0.475,4.454-0.43c1.692,0.057,3.582,0.426,5.323,1.388c1.754,0.943,3.025,2.506,3.659,4.092
					c0.658,1.59,0.814,3.136,0.865,4.404c0.036,1.275-0.043,2.3-0.114,3.005C195.115,180.666,195.043,181.052,195.009,181.049z"/>
			</g>
			<path style="fill:#455A64;" d="M233.61,204.333l-21.054,0.741L150.134,223.8l45.921,20.714l7.725,24.402l24.139-9.375
				l22.016-10.013c0,0,0.476-24.149,0.476-24.149c-0.334-6.275-3.578-12.035-8.771-15.574L233.61,204.333z"/>
			<g>
				<path style="fill:#455A64;" d="M171.175,166.924l5.376-0.48c1.189-0.106,2.239,0.772,2.345,1.961l0,0
					c0.106,1.189-0.772,2.239-1.961,2.345l-4.644,0.415L171.175,166.924z"/>
				<path style="fill:#455A64;" d="M132.439,176.989c0.247-1.689-0.032,3.38-0.017,4.944c0.029,2.965,2.499,5.324,5.462,5.215
					l6.893-0.255l5.357-4.852l-10.395,0.042v-5.433L132.439,176.989z"/>
				<path style="fill:#FFBE9D;" d="M177.765,220.938c0,0,5.33-4.55,7.46-4.787c2.131-0.237,15.829-0.134,15.829-0.134l8.995,6.155
					l21.779,40.006l8.522,10.889l-23.672,27.933l-15.624-13.02l-18.42-6.016l14.064,0.195c2.841-4.498,7.88-11.357,7.88-11.357
					l3.473-19.988l0.161-7.943l-4.597-12.505l-7.058-7.486L177.765,220.938z"/>
				<path style="fill:#FFBE9D;" d="M153.12,222.141l6.535-9.149l25.16-8.659c0,0,3.921,4.738-1.961,8.904h-1.96
					c0,0,2.816,6.252-5.143,4.493c-0.739-0.163-8.091,1.144-8.091,1.144l-3.921,3.268H153.12z"/>
				<polygon style="fill:#455A64;" points="127.741,222.163 120.137,229.437 120.936,271.117 127.752,278.644 196.586,282.81 
					205.552,271.174 203.776,234.593 201.412,228.602 194.801,224.092 				"/>
				<g>
					<path style="fill:#263238;" d="M191.246,227.04c0,0,0.147,0.116,0.425,0.366c0.292,0.266,0.702,0.639,1.237,1.127
						c1.103,1.019,2.712,2.505,4.796,4.429l0.031,0.028l0,0.043c0.023,8.617,0.064,23.336,0.115,42.08l0,0.078l-0.051,0.06
						c-1.153,1.362-2.424,2.866-3.722,4.4l-0.07,0.083l-0.109-0.005c-18.271-0.812-40.077-1.782-63.444-2.82
						c-0.515-0.023-1.03-0.047-1.541-0.07l-0.112-0.005l-0.073-0.085c-1.975-2.289-3.93-4.556-5.858-6.792l-0.062-0.072
						l-0.001-0.094c-0.182-13.577-0.354-26.471-0.511-38.218l-0.001-0.101l0.071-0.071c2.203-2.198,4.331-4.322,6.399-6.385
						l0.07-0.07l0.091,0.003c18.645,0.596,34.232,1.093,45.179,1.443c5.44,0.192,9.726,0.343,12.672,0.447
						c1.446,0.058,2.56,0.103,3.334,0.134c0.363,0.018,0.644,0.032,0.852,0.043C191.153,227.026,191.249,227.035,191.246,227.04
						c-0.002,0.006-0.102,0.008-0.297,0.008c-0.211-0.002-0.496-0.005-0.865-0.009c-0.78-0.016-1.901-0.039-3.358-0.069
						c-2.952-0.075-7.246-0.184-12.697-0.322c-10.928-0.301-26.49-0.731-45.103-1.244l0.161-0.067
						c-2.063,2.067-4.186,4.195-6.385,6.399l0.07-0.171c0.17,11.747,0.357,24.64,0.554,38.218l-0.063-0.166
						c1.929,2.236,3.885,4.502,5.86,6.79l-0.185-0.09c0.512,0.023,1.026,0.046,1.542,0.069c23.365,1.068,45.171,2.065,63.44,2.9
						l-0.178,0.078c1.302-1.53,2.578-3.03,3.735-4.389l-0.05,0.137c0.051-18.744,0.092-33.463,0.115-42.08l0.031,0.071
						c-2.046-1.947-3.626-3.451-4.709-4.482c-0.524-0.506-0.926-0.893-1.211-1.169C191.38,227.187,191.246,227.04,191.246,227.04z"
						/>
				</g>
				<polygon style="fill:#263238;" points="125.73,229.703 127.727,271.783 196.04,275.645 194.975,231.568 				"/>
				<polygon style="fill:#455A64;" points="146.903,234.098 148.101,261.53 193.111,263.394 193.111,235.03 				"/>
				
					<ellipse transform="matrix(0.1594 -0.9872 0.9872 0.1594 -93.8459 383.4137)" style="fill:#263238;" cx="178.225" cy="246.815" rx="15.38" ry="15.38"/>
				<path style="fill:#FAFAFA;" d="M193.111,254.721c-2.792,3.881-7.348,6.408-12.494,6.408c-8.494,0-15.38-6.886-15.38-15.38
					c0-4.515,1.945-8.576,5.044-11.389l21.296,0.64c0.654,0.635,1.002,1.038,1.536,1.78L193.111,254.721z"/>
				<g>
					<path style="fill:#455A64;" d="M127.734,271.809c-0.065-0.128,4.442-2.534,10.066-5.372c5.625-2.839,10.236-5.036,10.301-4.908
						c0.065,0.128-4.441,2.533-10.067,5.372C132.411,269.74,127.799,271.937,127.734,271.809z"/>
				</g>
				<path style="fill:#455A64;" d="M178.225,180.23l51.004,0.258v16.488v11.319l-7.231-1.297l-9.514-1.142v-6.85l-0.079-4.482
					l-15.754,0.516l0.131,8.756l6.257,9.599l0.058,1.412l-15.582-0.832l-5.857-10.179c0,0-0.127-4.019,0-4.399l-3.67,1.476
					c-1.933,0.778-3.997,1.177-6.081,1.177H153.12c-4.608,0-8.379-3.771-8.379-8.379v-6.05c0-3.95,4.203-7.33,8.153-7.36
					L178.225,180.23z"/>
				<path style="fill:#263238;" d="M170.221,202.05h-15.618c-5.742,0-10.397-4.655-10.397-10.397v-1.026
					c0-5.742,4.655-10.397,10.397-10.397h15.618c5.742,0,10.397,4.655,10.397,10.397v1.026
					C180.617,197.395,175.963,202.05,170.221,202.05z"/>
				<path style="fill:#455A64;" d="M170.218,193.272h-17.674c-1.331,0-2.41-1.079-2.41-2.41v-0.157c0-1.331,1.079-2.41,2.41-2.41
					h17.674c1.331,0,2.41,1.079,2.41,2.41v0.157C172.628,192.193,171.549,193.272,170.218,193.272z"/>
				<g>
					<path style="fill:#263238;" d="M184.597,180.26c0.012-0.028,0.348,0.082,0.923,0.366c0.57,0.286,1.372,0.783,2.186,1.611
						c0.804,0.829,1.57,2.035,1.994,3.51c0.429,1.479,0.619,3.136,0.48,4.922c-0.25,1.798-1.185,3.304-2.192,4.434
						c-1.019,1.138-2.108,1.979-3.058,2.61c-0.954,0.629-1.775,1.054-2.349,1.328c-0.579,0.265-0.909,0.386-0.924,0.356
						c-0.042-0.081,1.233-0.682,3.063-1.986c0.907-0.658,1.945-1.51,2.906-2.622c0.951-1.105,1.808-2.533,2.038-4.186
						c0.13-1.653-0.039-3.325-0.425-4.722c-0.381-1.415-1.07-2.569-1.803-3.394C185.921,180.85,184.527,180.368,184.597,180.26z"/>
				</g>
				<path style="fill:#455A64;" d="M126.286,168.284l40.988-3.775c2.913-0.268,5.503,1.852,5.815,4.761l0,0
					c0.315,2.937-1.808,5.574-4.744,5.894l-40.3,4.387L126.286,168.284z"/>
				<g>
					<rect x="215.606" y="156.325" style="fill:#455A64;" width="56.019" height="37.048"/>
					<g>
						<path style="fill:#263238;" d="M271.624,193.373c0,0-0.015-0.241-0.022-0.687c-0.005-0.467-0.013-1.121-0.023-1.965
							c-0.012-1.738-0.03-4.252-0.053-7.462c-0.026-6.445-0.064-15.678-0.109-26.934l0.207,0.207
							c-15.408,0.015-34.889,0.033-56.014,0.053c-0.061,0.055,0.488-0.492,0.256-0.255v0.01v0.019v0.039v0.077v0.154v0.309v0.617
							l0,1.23c0,0.819,0,1.635,0,2.449c0,1.627-0.001,3.243-0.001,4.847c-0.001,3.207-0.003,6.365-0.004,9.465
							c-0.005,6.199-0.011,12.165-0.016,17.827l-0.239-0.239c16.447,0.048,30.417,0.089,40.301,0.118
							c4.934,0.027,8.847,0.049,11.552,0.064c1.329,0.012,2.36,0.022,3.084,0.029c0.337,0.006,0.6,0.011,0.801,0.014
							C271.525,193.364,271.62,193.369,271.624,193.373s-0.081,0.009-0.253,0.014c-0.194,0.003-0.448,0.008-0.774,0.014
							c-0.712,0.007-1.728,0.016-3.036,0.029c-2.692,0.015-6.587,0.037-11.498,0.064c-9.923,0.029-23.947,0.07-40.458,0.118
							l-0.239,0.001l0-0.24c-0.005-5.661-0.01-11.628-0.016-17.827c-0.001-3.1-0.003-6.258-0.004-9.465
							c0-1.604-0.001-3.22-0.001-4.847c0-0.814,0-1.63,0-2.449l0-1.23v-0.617v-0.309v-0.154v-0.077v-0.039v-0.019v-0.01
							c-0.233,0.229,0.317-0.323,0.265-0.266c21.125,0.02,40.607,0.038,56.014,0.053l0.208,0l-0.001,0.207
							c-0.046,11.31-0.083,20.588-0.109,27.063c-0.023,3.19-0.04,5.689-0.053,7.415c-0.01,0.827-0.018,1.469-0.023,1.926
							C271.639,193.162,271.624,193.373,271.624,193.373z"/>
					</g>
				</g>
				<g>
					<path style="fill:#263238;" d="M150.959,177.08c0.01,0.069-1.04,0.288-2.752,0.53c-1.712,0.246-4.083,0.515-6.704,0.775
						c-2.533,0.235-4.824,0.448-6.715,0.623c-1.719,0.148-2.783,0.238-2.793,0.164c-0.01-0.069,1.039-0.288,2.751-0.53
						c1.712-0.246,4.083-0.515,6.706-0.775c2.532-0.235,4.823-0.447,6.714-0.623C149.884,177.096,150.948,177.007,150.959,177.08z"
						/>
				</g>
				<g>
					<path style="fill:#263238;" d="M139.729,182.026c0.052-0.034,0.323,0.247,0.501,0.839c0.18,0.578,0.214,1.493-0.222,2.359
						c-0.44,0.864-1.199,1.377-1.772,1.574c-0.582,0.206-0.969,0.154-0.973,0.091c-0.011-0.079,0.34-0.161,0.822-0.427
						c0.478-0.259,1.088-0.746,1.458-1.473c0.367-0.728,0.4-1.508,0.326-2.047C139.801,182.396,139.658,182.064,139.729,182.026z"/>
				</g>
				<g>
					<path style="fill:#263238;" d="M171.747,173.424c-0.058-0.057,0.247-0.413,0.536-1.094c0.284-0.674,0.582-1.679,0.568-2.79
						c0.012-1.124-0.411-2.052-0.834-2.658c-0.422-0.61-0.738-0.974-0.679-1.029c0.045-0.044,0.446,0.217,0.971,0.805
						c0.527,0.571,1.082,1.642,1.063,2.874c0.014,1.226-0.367,2.282-0.76,2.964C172.212,173.186,171.786,173.473,171.747,173.424z"
						/>
				</g>
				<path style="fill:#263238;" d="M89.103,168.246l29.524-2.724c4.999-0.461,9.512,2.998,10.366,7.944l0,0
					c0.937,5.425-2.86,10.529-8.325,11.191l-29.435,3.564c-5.483,0.664-10.473-3.223-11.172-8.701l0,0
					C79.342,173.881,83.442,168.769,89.103,168.246z"/>
				<g>
					<path style="fill:#455A64;" d="M94.254,186.566c-0.073-0.072,0.84-0.785,1.713-2.354c0.884-1.542,1.566-4.026,1.287-6.743
						c-0.357-2.681-1.931-4.814-3.24-5.974c-1.343-1.204-2.506-1.394-2.471-1.494c0.004-0.025,0.295-0.014,0.79,0.143
						c0.5,0.146,1.185,0.49,1.917,1.068c0.734,0.574,1.491,1.404,2.145,2.448c0.649,1.041,1.209,2.313,1.376,3.754
						c0.293,2.84-0.483,5.427-1.487,6.984c-0.492,0.789-1.002,1.348-1.384,1.694C94.513,186.435,94.274,186.59,94.254,186.566z"/>
				</g>
			</g>
			<g>
				<path style="fill:#263238;" d="M182.224,203.796c0-0.029,0.381-0.057,1.085-0.083c0.788-0.019,1.797-0.043,3.022-0.072
					c2.676-0.024,6.283-0.056,10.45-0.093l0.133-0.001l0.075,0.114c1.07,1.634,2.229,3.405,3.432,5.243
					c0.982,1.512,1.934,2.978,2.828,4.354l0.256,0.394l-0.467-0.004c-4.443-0.036-8.318-0.068-11.194-0.092
					c-1.324-0.03-2.415-0.055-3.263-0.074c-0.762-0.027-1.176-0.056-1.176-0.087c0-0.03,0.414-0.059,1.176-0.086
					c0.848-0.019,1.939-0.044,3.263-0.074c2.875-0.023,6.751-0.055,11.194-0.091l-0.211,0.39c-0.898-1.373-1.855-2.836-2.842-4.345
					c-1.196-1.843-2.348-3.618-3.411-5.256l0.208,0.113c-4.167-0.037-7.775-0.069-10.45-0.093c-1.225-0.029-2.233-0.053-3.022-0.072
					C182.605,203.853,182.224,203.825,182.224,203.796z"/>
			</g>
			<g>
				<path style="fill:#263238;" d="M229.152,205.319c0,0.144-3.616,0.26-8.075,0.26c-4.461,0-8.076-0.117-8.076-0.26
					s3.615-0.26,8.076-0.26C225.536,205.059,229.152,205.176,229.152,205.319z"/>
			</g>
			<g>
				<path style="fill:#263238;" d="M229.902,258.639c-0.018,0-0.039-0.234-0.061-0.68c-0.021-0.499-0.048-1.147-0.082-1.951
					c-0.067-1.694-0.171-4.145-0.373-7.168c-0.202-3.023-0.49-6.62-0.917-10.603c-0.213-1.992-0.453-4.08-0.732-6.242
					c-0.311-2.156-0.504-4.419-1.051-6.636c-0.545-2.224-1.417-4.306-2.541-6.145c-1.106-1.839-2.72-3.204-4.404-4.246
					c-3.394-2.074-6.866-3.182-9.759-4.019c-2.916-0.802-5.325-1.265-6.991-1.566c-0.793-0.134-1.432-0.242-1.924-0.326
					c-0.44-0.074-0.671-0.122-0.669-0.14c0.002-0.018,0.237-0.005,0.682,0.035c0.446,0.036,1.1,0.114,1.942,0.23
					c1.681,0.24,4.109,0.649,7.055,1.41c2.925,0.799,6.434,1.872,9.917,3.967c1.722,1.048,3.423,2.468,4.584,4.386
					c1.158,1.881,2.055,4.015,2.612,6.286c0.287,1.131,0.471,2.281,0.617,3.396c0.147,1.118,0.292,2.219,0.435,3.302
					c0.272,2.166,0.503,4.26,0.703,6.257c0.401,3.993,0.652,7.6,0.807,10.631c0.154,3.031,0.203,5.488,0.208,7.185
					c0.008,0.848-0.006,1.508-0.016,1.954C229.934,258.404,229.92,258.639,229.902,258.639z"/>
			</g>
			<g>
				<path style="fill:#263238;" d="M236.955,255.431c-0.018,0-0.038-0.226-0.059-0.655c-0.018-0.484-0.04-1.108-0.068-1.88
					c-0.052-1.697-0.124-4.042-0.212-6.913c-0.228-5.828-0.517-13.912-1.771-22.712c-0.347-2.176-1.064-4.224-2.042-6.059
					c-0.974-1.845-2.088-3.527-3.516-4.786c-1.408-1.279-2.977-2.228-4.501-2.98c-1.526-0.756-3.023-1.31-4.41-1.743
					c-2.772-0.883-5.1-1.31-6.702-1.606c-0.761-0.129-1.376-0.232-1.853-0.313c-0.424-0.072-0.646-0.118-0.644-0.136
					c0.002-0.018,0.228-0.006,0.657,0.032c0.43,0.034,1.06,0.107,1.871,0.217c1.617,0.236,3.966,0.608,6.779,1.454
					c1.406,0.415,2.929,0.954,4.49,1.706c1.558,0.749,3.171,1.703,4.635,3.013c1.489,1.296,2.656,3.042,3.645,4.904
					c1.006,1.87,1.751,3.983,2.105,6.213c1.262,8.858,1.49,16.945,1.625,22.785c0.054,2.922,0.06,5.287,0.047,6.921
					c-0.012,0.773-0.022,1.397-0.03,1.882C236.988,255.205,236.973,255.431,236.955,255.431z"/>
			</g>
		</g>
		<g>
			<path style="fill:#EB996E;" d="M196.557,222.882c-0.003,0.007-0.118,0.031-0.32-0.093c-0.044-0.036-0.108-0.122-0.072-0.215
				c0.028-0.084,0.09-0.146,0.155-0.195c0.134-0.1,0.302-0.174,0.494-0.24c0.771-0.25,1.953-0.352,3.369-0.124
				c0.707,0.114,1.471,0.316,2.255,0.628c0.389,0.15,0.794,0.331,1.185,0.603c0.371,0.265,0.724,0.561,1.077,0.871
				c1.402,1.251,2.821,2.731,4.287,4.306c0.722,0.78,1.417,1.548,2.08,2.301l0.025,0.028l0.015,0.033
				c1.485,3.23,2.767,6.07,3.663,8.109c0.407,0.949,0.751,1.75,1.032,2.406c0.232,0.568,0.346,0.884,0.317,0.897
				c-0.029,0.013-0.197-0.277-0.48-0.822c-0.319-0.638-0.709-1.418-1.171-2.342c-0.978-2.001-2.318-4.813-3.825-8.034l0.04,0.061
				c-0.673-0.739-1.368-1.503-2.08-2.285c-1.46-1.568-2.866-3.055-4.225-4.302c-0.341-0.309-0.68-0.602-1.022-0.855
				c-0.328-0.239-0.705-0.421-1.084-0.577c-0.747-0.317-1.477-0.532-2.156-0.665c-1.357-0.265-2.504-0.222-3.247-0.044
				c-0.35,0.079-0.7,0.261-0.563,0.378C196.444,222.831,196.568,222.859,196.557,222.882z"/>
		</g>
		<g>
			<path style="fill:#EB996E;" d="M210.876,270.979c-0.029,0.154-1.499-0.104-3.258,0.242c-1.764,0.322-3.038,1.099-3.121,0.967
				c-0.091-0.097,1.134-1.13,3.024-1.479C209.406,270.343,210.925,270.855,210.876,270.979z"/>
		</g>
		<g>
			<path style="fill:#EB996E;" d="M210.455,247.463c0.074,0.029-0.382,1.317-1.052,3.415c-0.671,2.098-1.528,5.017-2.272,8.291
				c-0.74,3.276-1.225,6.28-1.524,8.462c-0.299,2.182-0.443,3.54-0.522,3.534c-0.036-0.003-0.042-0.345-0.023-0.964
				c0.016-0.619,0.076-1.512,0.179-2.613c0.206-2.203,0.636-5.237,1.381-8.534c0.749-3.296,1.667-6.219,2.431-8.295
				c0.381-1.039,0.712-1.87,0.965-2.436C210.268,247.756,210.421,247.45,210.455,247.463z"/>
		</g>
	</g>
	<g>
		<g>
			<g>
				<path style="fill:#E8505B;" d="M392.242,385.854c7.322-3.599,9.908-12.217,8.901-20.058
					c-1.039-8.092-9.231-14.911-16.599-18.413c-7.369-3.502-15.593-4.723-23.704-5.598c-4.585-0.494-9.345-0.874-13.704,0.631
					c-4.359,1.505-8.228,5.398-8.244,10.01"/>
				<g style="opacity:0.3;">
					<path d="M392.242,385.854c7.322-3.599,9.908-12.217,8.901-20.058c-1.039-8.092-9.231-14.911-16.599-18.413
						c-7.369-3.502-15.593-4.723-23.704-5.598c-4.585-0.494-9.345-0.874-13.704,0.631c-4.359,1.505-8.228,5.398-8.244,10.01"/>
				</g>
			</g>
			<path style="fill:#FFBE9D;" d="M353.023,299.233l-12.67,53.687L232.78,263.394l-17.879,36.126l97.08,103.022
				c11.988,12.225,29.29,17.654,46.114,14.468h0c21.533-4.077,35.017-22.908,38.118-44.603l6.3-43.937L353.023,299.233z"/>
			<path style="fill:#E8505B;" d="M395.424,259.778l-11.806-6.636c0,0-27.619,2.199-30.595,46.091l-4.299,11.38l-8.371,42.307
				c1.599-8.251,42.48-38.201,60.791,12.877l6.431-72.721C405.898,277.919,407.32,267.687,395.424,259.778z"/>
			<g>
				<path style="fill:#263238;" d="M349.204,294.41c0.018-0.003,0.062,0.194,0.131,0.573c0.062,0.379,0.181,0.937,0.248,1.665
					c0.18,1.451,0.317,3.574,0.179,6.191c-0.227,5.244-1.759,12.37-4.389,19.904c-1.374,3.751-2.887,7.226-4.057,10.463
					c-1.175,3.232-2.032,6.214-2.462,8.772c-0.433,2.557-0.469,4.668-0.346,6.113c0.138,1.442,0.297,2.237,0.245,2.247
					c-0.018,0.004-0.069-0.191-0.151-0.567c-0.065-0.378-0.234-0.93-0.296-1.66c-0.187-1.454-0.208-3.597,0.184-6.192
					c0.388-2.596,1.218-5.618,2.374-8.876c1.151-3.261,2.654-6.752,4.019-10.477c2.614-7.49,4.193-14.56,4.511-19.749
					c0.184-2.592,0.104-4.701-0.013-6.15C349.272,295.217,349.156,294.417,349.204,294.41z"/>
			</g>
			<g>
				<path style="fill:#263238;" d="M386.247,255.916c-0.009,0.043-0.636-0.07-1.772-0.219c-1.135-0.153-2.792-0.291-4.834-0.238
					c-4.057,0.078-9.796,1.211-15.059,4.59c-5.261,3.385-8.676,8.136-10.432,11.794c-0.896,1.836-1.459,3.4-1.791,4.496
					c-0.336,1.095-0.493,1.712-0.536,1.703c-0.018-0.004,0.003-0.162,0.058-0.461c0.063-0.296,0.127-0.742,0.284-1.297
					c0.275-1.121,0.789-2.72,1.654-4.6c1.692-3.743,5.118-8.622,10.483-12.073c5.366-3.444,11.226-4.536,15.334-4.52
					c2.07-0.006,3.738,0.19,4.871,0.406c0.57,0.088,1.003,0.215,1.298,0.281C386.098,255.851,386.251,255.898,386.247,255.916z"/>
			</g>
			<g>
				<path style="fill:#263238;" d="M401.079,370.602c-0.018,0-0.046-0.3-0.082-0.869c-0.017-0.299-0.038-0.648-0.061-1.052
					c-0.013-0.416-0.047-0.895-0.135-1.429c-0.208-2.148-0.842-5.242-2.279-8.82c-1.421-3.581-3.843-7.574-7.369-11.253
					c-1.797-1.799-3.833-3.55-6.173-5.033c-2.35-1.461-4.957-2.693-7.763-3.544c-2.803-0.88-5.685-1.184-8.444-1.243
					c-2.769-0.071-5.44,0.278-7.921,0.827c-2.502,0.499-4.764,1.4-6.848,2.276c-2.032,0.995-3.882,2.029-5.419,3.193
					c-3.104,2.286-5.191,4.667-6.408,6.445c-0.342,0.421-0.584,0.835-0.795,1.193c-0.21,0.345-0.392,0.644-0.548,0.899
					c-0.3,0.485-0.465,0.737-0.481,0.728c-0.016-0.008,0.118-0.276,0.389-0.779c0.144-0.264,0.313-0.573,0.508-0.929
					c0.198-0.369,0.429-0.795,0.76-1.228c1.175-1.827,3.242-4.274,6.356-6.627c1.543-1.197,3.404-2.263,5.456-3.288
					c2.103-0.906,4.39-1.833,6.924-2.352c2.513-0.57,5.22-0.934,8.033-0.869c2.802,0.053,5.731,0.359,8.586,1.254
					c2.856,0.865,5.506,2.122,7.889,3.612c2.373,1.513,4.432,3.297,6.245,5.13c3.556,3.748,5.973,7.812,7.366,11.449
					c1.409,3.636,1.992,6.77,2.139,8.938c0.073,0.539,0.091,1.022,0.088,1.441c0.004,0.406,0.008,0.758,0.011,1.059
					C401.104,370.302,401.097,370.602,401.079,370.602z"/>
			</g>
			<g style="opacity:0.3;">
				<path d="M334.443,348.001c1.935-14.039,5.674-24.482,13.794-36.098c-2.838,13.586-5.995,25.704-9.345,39.8"/>
			</g>
		</g>
		<g>
			<path style="fill:#EB996E;" d="M357.501,365.233c-0.086,0.116-3.917-2.581-8.557-6.021c-4.641-3.442-8.333-6.324-8.247-6.44
				c0.086-0.116,3.916,2.58,8.558,6.022C353.894,362.234,357.587,365.118,357.501,365.233z"/>
		</g>
	</g>
</g>
<g id="Plant">
	<g>
		<g>
			<g>
				<path style="fill:#E8505B;" d="M97.264,411.964c-2.817,4.023-8.292,2.691-10.83,0.236c-2.538-2.456-3.612-6.015-4.588-9.409
					c-2.231-7.755-4.481-15.89-2.822-23.788c0.496-2.361,1.379-4.716,3.038-6.467c1.659-1.752,4.21-2.794,6.543-2.177
					c2.76,0.729,4.476,3.433,5.716,6.005c3.645,7.56,5.575,15.941,5.604,24.335C99.937,404.617,99.475,408.728,97.264,411.964"/>
			</g>
		</g>
		<g style="opacity:0.2;">
			<g>
				<path d="M97.264,411.964c-2.817,4.023-8.292,2.691-10.83,0.236c-2.538-2.456-3.612-6.015-4.588-9.409
					c-2.231-7.755-4.481-15.89-2.822-23.788c0.496-2.361,1.379-4.716,3.038-6.467c1.659-1.752,4.21-2.794,6.543-2.177
					c2.76,0.729,4.476,3.433,5.716,6.005c3.645,7.56,5.575,15.941,5.604,24.335C99.937,404.617,99.475,408.728,97.264,411.964"/>
			</g>
		</g>
		<g>
			<g>
				<path style="fill:#E8505B;" d="M86.709,432.338c-4.606-2.377-10.031-2.686-15.146-1.84c-2.747,0.454-5.612,1.276-7.482,3.34
					c-1.87,2.064-2.224,5.696-0.077,7.469c1.278,1.056,3.06,1.216,4.717,1.197c4.004-0.047,8.446-0.752,11.645,1.657
					c1.825,1.374,3.039,3.659,5.221,4.335c2.135,0.661,4.543-0.598,5.675-2.525c1.132-1.926,1.17-4.335,0.642-6.506
					C91.906,439.465,91.35,434.733,86.709,432.338z"/>
			</g>
		</g>
		<g>
			<g>
				<path style="fill:#E8505B;" d="M104.999,417.737c-3.059-3.63-3.639-8.924-2.278-13.472c1.361-4.547,4.436-8.416,7.979-11.574
					c4.154-3.703,9.038-6.585,14.288-8.43c2.066-0.727,4.246-1.3,6.426-1.092c2.18,0.208,4.376,1.323,5.392,3.263
					c1.504,2.868,0.062,6.346-1.497,9.184c-2.747,5-5.888,9.783-9.385,14.291c-2.813,3.626-6.035,7.204-10.322,8.842
					c-4.287,1.639-8.74,1.446-11.012-1.527"/>
			</g>
		</g>
		<g>
			<g>
				<g>
					<path style="fill:#263238;" d="M97.455,472.654c-0.053,0.003-0.139-0.648-0.255-1.828c-0.13-1.331-0.292-3.001-0.486-4.989
						c-0.232-2.1-0.539-4.598-1.122-7.319c-0.581-2.714-1.491-5.655-2.66-8.637c-1.21-2.965-2.686-5.66-4.411-7.815
						c-1.712-2.165-3.704-3.732-5.576-4.636c-1.866-0.922-3.539-1.296-4.696-1.462c-1.166-0.12-1.82-0.212-1.82-0.263
						c-0.001-0.052,0.654-0.061,1.852-0.029c1.187,0.079,2.93,0.38,4.897,1.274c1.973,0.875,4.086,2.466,5.882,4.676
						c1.811,2.2,3.34,4.955,4.572,7.973c1.189,3.035,2.086,6.006,2.641,8.779c0.554,2.768,0.807,5.294,0.973,7.411
						c0.158,2.119,0.218,3.834,0.247,5.02C97.519,471.995,97.506,472.651,97.455,472.654z"/>
				</g>
			</g>
		</g>
		<g>
			<g>
				<g>
					<path style="fill:#263238;" d="M97.111,468.815c-0.026-0.001-0.042-0.294-0.049-0.849c0.002-0.637,0.004-1.44,0.006-2.426
						c0.006-2.105,0.005-5.152-0.108-8.914c-0.186-7.524-0.834-17.91-2.085-29.326c-1.261-11.42-2.931-21.692-4.454-29.061
						c-0.36-1.847-0.722-3.51-1.064-4.965c-0.326-1.459-0.603-2.717-0.871-3.735c-0.23-0.958-0.418-1.738-0.567-2.358
						c-0.122-0.542-0.173-0.83-0.148-0.837c0.025-0.007,0.126,0.267,0.295,0.795c0.185,0.611,0.418,1.38,0.704,2.325
						c0.312,1.008,0.632,2.258,0.998,3.711c0.381,1.45,0.781,3.108,1.175,4.953c1.661,7.36,3.419,17.646,4.682,29.09
						c1.254,11.44,1.818,21.856,1.868,29.399c0.045,3.771-0.035,6.824-0.132,8.931c-0.06,0.985-0.109,1.788-0.148,2.424
						C97.171,468.527,97.137,468.817,97.111,468.815z"/>
				</g>
			</g>
		</g>
		<g>
			<g>
				<g>
					<path style="fill:#263238;" d="M97.06,448.725c-0.052-0.002-0.043-0.902,0.018-2.534c0.093-1.628,0.317-3.982,0.776-6.865
						c0.486-2.876,1.165-6.292,2.233-10.003c1.015-3.724,2.41-7.746,4.183-11.836c3.47-8.23,8.183-14.959,12.284-19.127
						c0.962-1.106,2.033-1.904,2.89-2.686c0.443-0.375,0.835-0.749,1.234-1.045c0.402-0.277,0.775-0.534,1.121-0.773
						c1.35-0.923,2.105-1.41,2.133-1.366c0.121,0.164-3.023,2.015-6.993,6.238c-3.954,4.214-8.536,10.897-11.977,19.058
						c-1.758,4.055-3.162,8.038-4.207,11.727c-1.097,3.675-1.825,7.056-2.376,9.904c-0.523,2.854-0.826,5.184-1.009,6.797
						C97.22,447.831,97.112,448.727,97.06,448.725z"/>
				</g>
			</g>
		</g>
	</g>
</g>
</svg>
